<svg width="1200" height="1200" xmlns="http://www.w3.org/2000/svg" xmlns:xlink="http://www.w3.org/1999/xlink" version="1.1"><g transform="scale(20.00053265895225) translate(-2.000799920823839, -2.500798967149528)">                        <g fill="#1083ff"><g xmlns="http://www.w3.org/2000/svg" transform="translate(0,-988.36219)"><path style="color:;font-style:normal;font-variant:normal;font-weight:normal;font-stretch:normal;font-size:medium;line-height:normal;font-family:sans-serif;text-indent:0;text-align:start;text-decoration:none;text-decoration-line:none;text-decoration-style:solid;text-decoration-color:;letter-spacing:normal;word-spacing:normal;text-transform:none;direction:ltr;block-progression:tb;writing-mode:lr-tb;baseline-shift:baseline;text-anchor:start;white-space:normal;clip-rule:nonzero;display:inline;overflow:visible;visibility:visible;opacity:1;isolation:auto;mix-blend-mode:normal;color-interpolation:sRGB;color-interpolation-filters:linearRGB;solid-color:;solid-opacity:1;fill:#ffffff;fill-opacity:1;fill-rule:evenodd;stroke:none;stroke-width:1px;stroke-linecap:butt;stroke-linejoin:miter;stroke-miterlimit:4;stroke-dasharray:none;stroke-dashoffset:0;stroke-opacity:1;color-rendering:auto;image-rendering:auto;shape-rendering:auto;text-rendering:auto;enable-background:accumulate" d="M 44 9 L 44 9.5 L 44 36 L 39 36 L 39 25 L 32 25 L 32 25.5 L 32 36 L 27 36 L 27 17 L 20 17 L 20 17.5 L 20 36 L 15 36 L 15 26 L 8 26 L 8 26.5 L 8 36 L 5.5078125 36 A 0.50005006 0.50005006 0 1 0 5.5078125 37 L 8 37 L 14 37 L 14 49 L 21 49 L 21 37 L 26 37 L 26 45 L 33 45 L 33 37 L 38 37 L 38 56 L 45 56 L 45 37 L 50 37 L 50 50 L 57 50 L 57 37 L 58.492188 37 A 0.50005006 0.50005006 0 1 0 58.492188 36 L 57 36 L 51 36 L 51 9 L 44 9 z M 45 10 L 50 10 L 50 36 L 45 36 L 45 10 z M 21 18 L 26 18 L 26 36 L 21 36 L 21 18 z M 33 26 L 38 26 L 38 36 L 33 36 L 33 26 z M 9 27 L 14 27 L 14 36 L 9 36 L 9 27 z M 15 37 L 20 37 L 20 48 L 15 48 L 15 37 z M 27 37 L 32 37 L 32 44 L 27 44 L 27 37 z M 39 37 L 44 37 L 44 55 L 39 55 L 39 37 z M 51 37 L 56 37 L 56 49 L 51 49 L 51 37 z " transform="translate(0,988.36219)"/></g></g>        </g></svg>